<?xml version="1.0" standalone="no"?>
<!DOCTYPE svg PUBLIC "-//W3C//DTD SVG 20010904//EN"
 "http://www.w3.org/TR/2001/REC-SVG-20010904/DTD/svg10.dtd">
<svg version="1.0" xmlns="http://www.w3.org/2000/svg"
 width="512.000000pt" height="512.000000pt" viewBox="0 0 512.000000 512.000000"
 preserveAspectRatio="xMidYMid meet" fill="currentColor">

<g transform="translate(0.000000,512.000000) scale(0.100000,-0.100000)" stroke="none">
<path d="M4575 5113 c-73 -11 -189 -46 -269 -79 -171 -72 -211 -105 -612 -512
l-370 -376 -410 115 c-370 104 -409 117 -406 134 12 74 13 179 2 228 -37 182
-190 337 -368 376 -116 24 -253 5 -350 -51 -30 -17 -114 -89 -187 -159 l-131
-128 -324 90 -324 90 -198 -198 c-109 -109 -198 -201 -198 -205 0 -3 69 -48
153 -99 83 -51 237 -144 340 -207 l189 -114 -106 -108 c-95 -96 -106 -111
-106 -143 0 -41 37 -92 74 -101 43 -11 79 13 197 130 l116 116 69 -42 c104
-64 102 -54 33 -127 -72 -78 -84 -103 -69 -149 15 -44 45 -64 94 -64 35 0 46
8 127 86 l88 86 384 -233 385 -234 -48 -55 c-27 -30 -194 -200 -372 -377
l-323 -322 -555 70 -554 70 -271 -271 -270 -270 0 -46 c0 -59 36 -94 97 -94
38 0 47 7 167 124 l126 125 405 -215 c240 -127 404 -219 402 -227 -2 -6 -19
-55 -38 -107 l-36 -95 -151 -155 c-168 -171 -258 -290 -340 -450 -73 -140 -90
-197 -85 -273 4 -54 8 -63 38 -88 69 -58 173 -45 339 42 148 77 273 171 427
322 139 135 143 138 213 158 39 11 102 33 139 48 l68 28 206 -391 207 -391
-124 -126 c-120 -121 -125 -127 -125 -168 0 -58 41 -101 96 -101 37 0 50 12
312 273 l274 274 -66 529 c-37 291 -69 539 -72 552 -4 19 54 82 367 397 205
206 375 375 378 375 3 0 111 -174 240 -386 l233 -385 -86 -88 c-78 -81 -86
-92 -86 -127 0 -49 20 -79 64 -94 47 -15 76 -1 152 72 35 34 66 59 67 57 2 -2
25 -39 51 -83 l47 -78 -120 -123 c-118 -121 -121 -124 -121 -168 0 -38 5 -49
31 -71 20 -17 42 -26 66 -26 32 0 47 11 143 106 l108 106 114 -189 c63 -103
156 -257 207 -341 51 -83 96 -152 99 -152 4 0 96 89 205 198 l198 198 -90 325
-90 324 132 136 c90 91 141 153 160 191 103 204 64 435 -99 587 -104 98 -223
139 -372 128 -42 -3 -84 -7 -92 -9 -11 -2 -40 90 -128 406 l-114 408 394 397
c421 424 436 441 499 606 56 144 71 220 73 350 1 138 -14 204 -66 281 -69 102
-182 154 -343 159 -55 2 -113 1 -130 -2z m241 -212 c83 -38 109 -99 102 -245
-4 -79 -12 -122 -37 -196 -72 -211 35 -95 -1396 -1527 -1271 -1273 -1292
-1293 -1405 -1365 -114 -74 -207 -128 -219 -128 -3 0 38 44 92 98 l97 97 70
210 70 210 161 161 c145 145 161 165 162 196 2 66 -55 117 -113 103 -14 -4
-94 -75 -185 -165 l-160 -160 -210 -70 -210 -70 -68 -68 -69 -67 37 74 c106
213 41 143 1417 1517 1248 1246 1275 1272 1353 1311 142 72 250 101 380 102
68 0 100 -4 131 -18z m-2649 -118 c94 -43 157 -150 157 -265 0 -38 -5 -73 -10
-78 -7 -7 -100 14 -300 70 -159 45 -295 83 -303 86 -19 6 117 145 175 180 83
49 187 52 281 7z m-520 -373 c417 -116 913 -254 1103 -306 190 -52 359 -100
377 -105 l32 -10 -306 -302 c-168 -166 -311 -302 -317 -301 -6 1 -413 245
-904 544 l-894 543 73 73 c41 41 75 74 76 74 1 0 343 -95 760 -210z m2664
-2404 l310 -1120 -74 -74 -74 -73 -542 891 c-298 490 -545 898 -548 907 -4 10
87 108 298 319 247 247 305 301 312 287 4 -10 147 -522 318 -1137z m-3241 352
c228 -28 416 -52 418 -53 1 -1 -21 -40 -49 -86 -28 -46 -73 -128 -100 -182
-28 -54 -53 -97 -58 -95 -4 2 -173 90 -374 197 l-367 195 37 38 c20 21 46 38
58 38 11 0 207 -23 435 -52z m3576 -59 c98 -41 166 -150 167 -263 1 -92 -26
-147 -121 -247 -47 -49 -88 -86 -92 -82 -8 9 -161 559 -163 588 -4 39 124 41
209 4z m-2706 -367 c0 -5 -14 -48 -30 -98 l-30 -89 -393 -393 c-325 -325 -408
-404 -487 -456 -123 -82 -230 -141 -230 -126 0 16 72 138 151 255 56 84 129
162 446 477 l378 378 85 29 c91 32 110 36 110 23z m378 -534 c6 -46 30 -239
54 -431 l43 -347 -41 -40 -40 -41 -189 358 c-105 196 -191 359 -192 362 -2 3
32 25 75 48 42 23 120 71 172 107 52 36 98 65 101 65 4 1 11 -36 17 -81z"/>
<path d="M4347 4760 c-28 -18 -49 -69 -43 -105 9 -45 34 -64 111 -82 108 -25
137 -59 169 -206 8 -33 58 -67 99 -67 19 0 39 11 59 31 30 29 31 32 25 96 -17
177 -168 328 -339 339 -36 3 -71 0 -81 -6z"/>
</g>
</svg>
